<svg width="1274" height="827" viewBox="0 0 1274 827" fill="none" xmlns="http://www.w3.org/2000/svg">
<path fill-rule="evenodd" clip-rule="evenodd" d="M336.839 -69C351.014 8.56081 423.12 89.9338 625.144 123C707.887 136.543 768.406 160.663 811.811 190.849V-69H336.839Z" fill="#D9D9D9" fill-opacity="0.5"/>
<path fill-rule="evenodd" clip-rule="evenodd" d="M146.006 -69C165.882 8.56081 266.988 89.9338 550.261 123C666.28 136.543 751.14 160.663 812 190.849V-69H146.006Z" fill="#D9D9D9" fill-opacity="0.5"/>
<path fill-rule="evenodd" clip-rule="evenodd" d="M0 -69C24.233 8.56081 147.504 89.9338 492.88 123C634.334 136.543 737.797 160.663 812 190.849V-69H0Z" fill="#D9D9D9" fill-opacity="0.5"/>
<path d="M1282 827C1416 539 1024.5 282.333 812 190L776 -142.5H812H1736.5L1282 827Z" fill="#C3C6CA"/>
</svg>
